<svg width="37" height="36" viewBox="0 0 37 36" fill="none" xmlns="http://www.w3.org/2000/svg">
<path id="Vector" d="M18.9356 0C28.8767 0 36.9355 8.05888 36.9355 18C36.9355 27.9412 28.8767 36 18.9356 36C8.99443 36 0.935547 27.9412 0.935547 18C0.935547 8.05888 8.99443 0 18.9356 0ZM18.9356 2.69959C10.4854 2.69959 3.63513 9.54983 3.63513 18C3.63513 26.4503 10.4854 33.3004 18.9356 33.3004C27.3858 33.3004 34.236 26.4503 34.236 18C34.236 9.54983 27.3858 2.69959 18.9356 2.69959ZM18.9289 15.2987C19.6123 15.2983 20.1774 15.8056 20.2672 16.4645L20.2796 16.6476L20.2861 26.5489C20.2867 27.2944 19.6827 27.8993 18.9372 27.8996C18.2539 27.9002 17.6888 27.3926 17.5989 26.7339L17.5865 26.5507L17.58 16.6494C17.5797 15.9039 18.1835 15.2992 18.9289 15.2987ZM18.9363 9.00369C19.929 9.00369 20.7337 9.80838 20.7337 10.801C20.7337 11.7936 19.929 12.5983 18.9363 12.5983C17.9438 12.5983 17.1391 11.7936 17.1391 10.801C17.1391 9.80838 17.9438 9.00369 18.9363 9.00369Z" fill="#CFCFCF"/>
</svg>
